<svg width="951" height="959" viewBox="0 0 951 959" fill="none" xmlns="http://www.w3.org/2000/svg">
<path d="M125.688 845.672C125.688 831.866 297.389 820.684 509.204 820.684C721.019 820.684 892.72 831.866 892.72 845.672C892.72 859.478 721.019 870.66 509.204 870.66C297.389 870.66 125.688 859.478 125.688 845.672Z" fill="#F6F6FC"/>
<path d="M662.036 787.211C641.479 773.717 590.869 674.264 630.67 654.96C668.409 636.656 680.406 714.495 682.593 724.615C690.465 686.445 700.775 649.4 725.955 656.085C751.136 662.831 725.955 716.744 725.955 716.744C748.886 687.57 806.058 642.591 832.05 656.085C858.043 669.578 779.19 717.931 779.19 717.931C815.055 697.628 922.15 670.265 815.18 721.929C864.166 706.124 959.639 698.315 853.482 731.362C917.401 725.802 949.829 734.485 950.954 743.481C952.079 752.477 933.334 765.159 850.795 767.283C891.596 774.029 912.028 783.587 901.531 787.211C884.848 787.211 662.036 787.211 662.036 787.211Z" fill="#DFE1F3"/>
<path d="M798.867 739.238C798.867 737.426 800.367 735.927 802.179 735.927C803.991 735.927 805.491 737.426 805.491 739.238C805.491 741.049 803.991 742.549 802.179 742.549C800.367 742.549 798.867 741.049 798.867 739.238Z" fill="white"/>
<path d="M685.027 758.723C685.027 755.912 687.339 753.601 690.151 753.601C692.963 753.601 695.274 755.912 695.274 758.723C695.274 761.534 692.963 763.846 690.151 763.846C687.277 763.846 685.027 761.534 685.027 758.723Z" fill="white"/>
<path d="M751.516 720.93C751.516 718.493 753.453 716.557 755.89 716.557C758.327 716.557 760.264 718.493 760.264 720.93C760.264 723.303 758.327 725.303 755.89 725.303C753.453 725.303 751.516 723.366 751.516 720.93Z" fill="white"/>
<path d="M164.431 379.267C170.117 356.777 152.059 344.346 140.812 337.911C139.625 344.908 136.376 373.582 164.431 379.267Z" fill="#BDC0DA"/>
<path d="M298.827 534.444C298.514 534.444 298.264 534.382 297.952 534.194C257.776 508.207 200.73 453.232 161.178 376.956C160.803 376.206 161.053 375.269 161.866 374.832C162.615 374.457 163.553 374.707 163.99 375.519C203.291 451.296 259.838 505.77 299.702 531.571C300.451 532.008 300.639 533.008 300.139 533.757C299.826 534.195 299.327 534.444 298.827 534.444Z" fill="#BDC0DA"/>
<path d="M266.902 522.325C220.852 513.954 207.044 545.439 195.547 569.053C209.855 570.615 259.216 579.736 266.902 522.325Z" fill="#BDC0DA"/>
<path d="M232.345 493.714C198.23 477.971 181.172 499.711 167.551 515.829C178.36 519.827 214.912 536.756 232.345 493.714Z" fill="#BDC0DA"/>
<path d="M201.671 455.667C176.303 435.676 157.683 450.419 143.062 461.102C151.31 466.599 178.49 488.152 201.671 455.667Z" fill="#BDC0DA"/>
<path d="M175.115 416.622C163.431 400.317 149.809 405.877 139.188 409.688C143.124 414.435 155.62 431.99 175.115 416.622Z" fill="#BDC0DA"/>
<path d="M279.085 501.211C258.779 465.228 281.085 444.612 297.518 428.245C302.891 439.74 324.76 478.284 279.085 501.211Z" fill="#BDC0DA"/>
<path d="M242.101 469.347C219.982 441.422 236.228 420.869 247.974 404.689C254.16 413.748 277.966 443.671 242.101 469.347Z" fill="#BDC0DA"/>
<path d="M204.293 425.246C195.045 402.694 209.604 392.324 220.351 383.891C222.663 391.012 232.66 415.188 204.293 425.246Z" fill="#BDC0DA"/>
<path d="M180.863 393.758C173.178 381.826 180.363 374.329 185.674 368.395C187.736 372.205 196.046 384.949 180.863 393.758Z" fill="#BDC0DA"/>
<path d="M518.637 440.991C509.015 440.179 499.58 436.243 500.518 430.309C501.392 424.686 510.89 423.687 520.137 425.061C515.638 418.002 513.576 410.193 518.013 407.319C526.635 401.697 542.818 427.31 541.506 435.494C541.506 446.551 518.075 464.48 511.827 456.234C508.765 452.361 512.764 446.239 518.637 440.991Z" fill="#CED3F8"/>
<path d="M603.237 494.779C602.674 494.779 602.112 494.467 601.862 493.967C584.242 461.107 552.626 438.493 541.254 437.118C540.38 436.994 539.817 436.244 539.88 435.369C540.005 434.495 540.754 433.932 541.629 433.995C555.063 435.619 587.054 459.795 604.611 492.468C605.049 493.217 604.736 494.154 603.987 494.592C603.737 494.717 603.424 494.779 603.237 494.779Z" fill="#BDC0DA"/>
<path d="M532.881 442.237C532.819 440.55 534.068 438.926 535.318 437.489C532.756 436.927 529.445 434.491 530.444 431.804C531.194 429.868 534.506 430.867 537.255 432.179C536.943 431.305 536.568 430.305 536.443 429.118C535.568 420.497 544.003 431.242 542.753 435.74C542.503 436.677 541.629 438.489 540.629 440.238C538.442 443.986 533.069 445.423 532.881 442.237Z" fill="#BDC0DA"/>
<path d="M589.744 665.762C577.81 648.021 563.001 594.483 601.865 568.308C619.485 556.501 624.796 554.377 633.044 556.501C638.418 557.875 642.292 561.748 646.54 559.187C654.288 554.502 636.731 525.453 663.223 505.712C689.716 485.971 708.148 501.464 715.208 496.029C722.331 490.594 717.645 477.413 732.766 472.977C747.949 468.542 755.697 493.28 776.004 490.282C797.06 487.158 833.175 489.657 836.174 509.648C839.173 529.638 822.74 531.263 816.117 543.444C809.494 555.626 816.367 594.92 785.189 599.606C754.26 604.228 742.076 601.417 733.891 639.712C725.705 678.007 689.091 692.187 670.783 686.44C652.476 680.693 656.1 691.25 665.16 697.935C674.22 704.619 658.1 710.991 644.478 707.555C630.857 704.057 604.677 688.064 589.744 665.762Z" fill="#F6F6FC"/>
<path d="M582.997 675.699C582.684 675.699 582.372 675.637 582.122 675.449C581.435 674.949 581.247 674.012 581.747 673.263C642.605 585.366 734.704 534.952 800.56 517.086C801.373 516.836 802.247 517.336 802.497 518.21C802.747 519.022 802.247 519.897 801.373 520.147C736.016 537.826 644.667 587.865 584.309 675.074C583.997 675.449 583.497 675.699 582.997 675.699Z" fill="#BDC0DA"/>
<path d="M745.327 540.635C745.265 540.635 745.202 540.635 745.14 540.635C744.265 540.511 743.703 539.761 743.765 538.886C744.39 534.076 744.265 513.148 739.641 501.904C739.328 501.091 739.703 500.217 740.516 499.842C741.328 499.53 742.203 499.905 742.578 500.717C747.515 512.711 747.577 534.138 746.952 539.261C746.765 540.073 746.14 540.635 745.327 540.635Z" fill="#BDC0DA"/>
<path d="M785.629 551.996C785.254 551.996 784.817 551.872 784.505 551.559C780.756 547.748 766.072 536.941 759.137 534.255C758.324 533.942 757.95 533.068 758.262 532.256C758.574 531.444 759.449 531.069 760.261 531.381C767.697 534.192 782.755 545.312 786.754 549.373C787.379 549.997 787.379 550.997 786.754 551.559C786.441 551.809 786.067 551.996 785.629 551.996Z" fill="#BDC0DA"/>
<path d="M687.848 573.181C687.723 573.181 687.66 573.181 687.535 573.118C686.66 572.931 686.161 572.119 686.348 571.244C688.223 562.311 689.785 548.255 681.599 528.889C681.286 528.077 681.661 527.202 682.411 526.827C683.224 526.515 684.098 526.89 684.473 527.639C694.034 550.129 690.535 566.434 689.41 571.806C689.222 572.681 688.535 573.181 687.848 573.181Z" fill="#BDC0DA"/>
<path d="M745.631 578.922C745.318 578.922 745.006 578.797 744.694 578.609C736.258 572.362 716.077 560.243 709.454 559.368C708.579 559.244 708.016 558.494 708.079 557.619C708.204 556.745 708.954 556.182 709.828 556.245C717.201 557.244 738.07 569.801 746.568 576.048C747.255 576.548 747.38 577.547 746.88 578.235C746.568 578.734 746.068 578.922 745.631 578.922Z" fill="#BDC0DA"/>
<path d="M673.844 620.724C673.531 620.724 673.219 620.599 672.906 620.411C671.719 619.537 670.532 618.6 669.22 617.6C662.784 612.602 654.724 606.418 646.539 604.669C645.664 604.481 645.164 603.669 645.352 602.794C645.539 601.92 646.351 601.42 647.226 601.608C656.099 603.482 664.471 609.979 671.219 615.164C672.531 616.163 673.719 617.1 674.843 617.975C675.531 618.475 675.656 619.474 675.156 620.161C674.781 620.474 674.344 620.724 673.844 620.724Z" fill="#BDC0DA"/>
<path d="M625.607 624.588C625.419 624.588 625.232 624.588 625.107 624.526C624.295 624.213 623.857 623.339 624.17 622.527C627.357 613.531 626.982 594.977 623.232 581.233C622.982 580.421 623.482 579.547 624.357 579.297C625.169 579.047 626.044 579.547 626.294 580.421C630.168 594.665 630.543 614.031 627.169 623.589C626.857 624.151 626.232 624.588 625.607 624.588Z" fill="#BDC0DA"/>
<path opacity="0.85" d="M600.365 725.103C654.6 705.612 695.651 740.533 709.585 806.939C657.162 814.748 594.68 787.823 600.365 725.103Z" fill="#232D82"/>
<path d="M588.867 710.239C623.17 639.709 696.399 634.711 773.065 686.187C729.39 743.66 642.914 776.77 588.867 710.239Z" fill="#BDC0DA"/>
<path d="M588.867 711.808C588.055 711.808 587.368 711.183 587.305 710.371C587.243 709.496 587.867 708.747 588.742 708.684C603.613 707.622 628.418 703.624 654.723 699.501C686.652 694.441 722.829 688.694 750.196 686.57C751.071 686.507 751.821 687.132 751.883 688.007C751.946 688.881 751.321 689.631 750.446 689.693C723.204 691.817 687.089 697.565 655.223 702.625C628.856 706.81 603.988 710.746 588.992 711.87C588.93 711.808 588.93 711.808 588.867 711.808Z" fill="#F6F6FC"/>
<path d="M303.012 659.146C288.704 739.358 216.849 765.096 125.562 735.297C152.992 665.455 230.158 607.92 303.012 659.146Z" fill="#F6F6FC"/>
<path d="M309.072 629.84C229.407 707.117 129.623 678.38 52.5195 572.93C138.37 517.58 269.333 515.269 309.072 629.84Z" fill="#F6F6FC"/>
<path d="M309.071 631.403C308.946 631.403 308.758 631.403 308.633 631.34C288.327 625.593 253.399 618.846 216.409 611.725C171.485 603.041 120.624 593.296 83.1972 582.863C82.3849 582.613 81.8851 581.739 82.135 580.927C82.3849 580.114 83.2597 579.615 84.0719 579.864C121.374 590.235 172.172 600.043 217.034 608.663C254.086 615.785 289.076 622.532 309.571 628.342C310.383 628.592 310.883 629.466 310.633 630.278C310.383 630.966 309.758 631.403 309.071 631.403Z" fill="#DFE1F3"/>
<path d="M287.273 255.203C243.785 290.562 194.799 271.695 160.684 215.159C206.296 191.108 272.339 195.731 287.273 255.203Z" fill="#BDC0DA"/>
<path d="M283.578 254.702C209.599 236.086 190.229 167.368 224.032 84.1572C287.452 114.268 336.188 189.983 283.578 254.702Z" fill="#F6F6FC"/>
<path d="M283.58 256.264C282.893 256.264 282.268 255.827 282.081 255.139C278.082 241.208 269.397 218.344 260.15 194.168C248.965 164.807 236.281 131.447 228.783 105.834C228.533 105.022 229.033 104.148 229.846 103.898C230.658 103.648 231.533 104.148 231.783 104.96C239.218 130.51 251.902 163.745 263.024 193.043C272.271 217.282 281.019 240.209 285.017 254.265C285.267 255.077 284.768 255.952 283.955 256.201C283.893 256.264 283.705 256.264 283.58 256.264Z" fill="#DFE1F3"/>
<path d="M600.054 530.015H541.445V787.082H600.054V530.015Z" fill="white"/>
<path d="M394.233 219.966C416.727 236.021 471.024 288.059 481.083 298.866C490.956 309.486 557.374 302.552 577.618 296.243C579.805 303.302 583.742 309.924 583.742 309.924C572.245 316.046 479.334 357.089 460.027 343.346C440.657 329.602 431.722 327.478 412.415 310.548C393.046 293.556 394.233 219.966 394.233 219.966Z" fill="#F6F6FC"/>
<path d="M576.246 297.059C586.743 295.122 588.618 284.877 598.115 280.629C607.612 276.381 608.924 275.632 609.237 278.005C609.549 280.379 597.927 286.376 599.927 287.001C603.363 288.063 624.42 272.071 627.419 274.382C629.481 275.944 615.735 285.314 608.924 288.875C615.36 290.437 632.543 272.383 634.105 275.944C635.167 278.318 619.109 292.686 611.236 293.748C617.234 295.31 632.668 280.317 635.042 282.816C636.979 284.815 621.733 297.496 614.548 298.683C620.234 299.058 628.481 292.499 629.419 294.623C630.543 297.246 615.298 305.617 601.801 309.616C591.179 312.739 590.742 309.053 583.744 309.99C578.558 304.431 576.246 297.059 576.246 297.059Z" fill="#FFCEC0"/>
<path d="M585.619 312.858C585.619 312.858 577.121 294.117 576.746 292.805C572.56 293.304 564.187 296.428 563.812 296.241C564.875 299.926 571.935 320.354 572.498 320.604C574.497 319.979 585.619 312.858 585.619 312.858Z" fill="#F6F6FC"/>
<path d="M433.228 432.137C433.228 482.488 433.041 708.258 433.041 811.397C426.793 811.397 414.733 811.397 414.733 811.397C404.424 785.846 335.943 480.739 328.945 432.137C342.879 432.137 433.228 432.137 433.228 432.137Z" fill="url(#paint0_radial_14_2750)"/>
<path d="M414.734 818.142C414.734 814.457 414.734 811.458 414.734 811.458H433.042C433.292 817.705 434.416 821.016 435.166 823.64C430.355 825.451 423.419 820.704 414.734 818.142Z" fill="#FFCEC0"/>
<path d="M414.733 818.144C423.418 820.767 430.353 825.453 435.164 823.641C437.664 825.453 474.841 838.821 478.589 841.383C482.463 844.006 481.901 848.13 477.777 848.13C471.779 848.13 422.48 845.943 422.48 845.943C421.481 847.005 420.668 848.13 420.668 848.13H409.422C406.047 842.32 406.922 824.828 414.733 818.144Z" fill="#232D82"/>
<path d="M280.148 818.142C280.148 814.457 280.148 811.458 280.148 811.458H298.456C298.706 817.705 299.83 821.016 300.58 823.64C295.769 825.451 288.833 820.704 280.148 818.142Z" fill="#FFCEC0"/>
<path d="M280.148 818.144C288.833 820.767 295.768 825.453 300.517 823.641C303.016 825.453 340.131 838.821 343.942 841.383C347.816 844.006 347.254 848.13 343.13 848.13C337.132 848.13 287.833 845.943 287.833 845.943C286.833 847.005 286.021 848.13 286.021 848.13H274.774C271.463 842.32 272.337 824.828 280.148 818.144Z" fill="url(#paint1_radial_14_2750)"/>
<path d="M298.206 432.137C297.144 451.253 280.148 708.258 280.148 811.397C286.397 811.397 298.456 811.397 298.456 811.397C308.765 785.846 395.553 480.739 402.489 432.137C388.555 432.137 298.206 432.137 298.206 432.137Z" fill="url(#paint2_radial_14_2750)"/>
<path d="M298.204 432.133C309.638 432.133 433.228 432.133 433.228 432.133C429.729 383.343 428.667 259.214 406.236 231.914C390.053 212.173 376.932 210.299 360.811 209.987C349.502 209.799 315.824 208.675 306.452 219.42C278.022 251.78 302.765 363.665 298.204 432.133Z" fill="#F6F6FC"/>
<path d="M292.645 292.322C292.832 300.444 293.144 308.815 293.644 317.373C299.393 308.752 309.952 292.322 312.201 284.139L292.645 292.322Z" fill="#DFE1F3"/>
<path d="M377.554 205.179C374.055 202.68 337.003 198.994 333.504 202.18C337.69 207.553 365.745 214.8 372.368 213.675C378.991 212.488 380.803 207.49 377.554 205.179Z" fill="#BBBFE2"/>
<path d="M335.259 171.826C336.759 178.198 340.445 203.373 334.947 210.495C338.946 213.494 359.94 217.804 375.685 211.495C372.311 207.309 366.126 201.187 369.687 193.378C373.499 184.882 382.559 194.815 387.432 181.009C393.118 164.954 392.118 134.531 383.996 126.909C374.873 118.351 357.503 108.605 337.009 123.723C320.264 136.03 332.26 158.832 335.259 171.826Z" fill="#FFCEC0"/>
<path d="M350.126 155.265C355.062 154.827 351.188 142.083 354.5 138.585C358.436 134.462 372.62 130.839 386.741 130.901C400.862 130.964 407.61 111.848 397.925 105.226C388.178 98.6037 381.18 109.911 374.307 108.412C366.309 106.662 366.621 97.0419 355.25 99.2909C344.69 101.352 350.563 110.723 344.003 113.222C337.255 115.783 326.008 107.6 318.635 119.469C313.199 128.215 323.196 131.963 323.134 141.084C323.071 146.769 310.825 164.885 326.695 170.32C342.566 175.755 337.442 160.7 335.943 154.39C334.506 148.081 336.942 143.583 340.066 143.083C343.253 142.458 343.066 155.889 350.126 155.265Z" fill="#232D82"/>
<path d="M295.387 435.557C309.071 450.925 343.499 457.609 347.06 449.301C352.496 436.744 322.067 430.997 322.067 430.997C334.564 430.747 339.937 429.685 339.5 426.936C335.876 424.5 316.569 426.312 304.947 421.251C291.951 418.565 287.827 427.061 295.387 435.557Z" fill="#FFCEC0"/>
<path d="M312.195 215.352C280.454 228.033 201.664 303.435 204.476 332.672C207.35 361.908 294.013 436.81 294.013 436.81C300.573 427.502 308.196 420.818 308.196 420.818C290.326 401.639 255.961 332.672 255.961 332.672C269.02 321.427 312.133 284.132 312.133 284.132V215.352H312.195Z" fill="#F6F6FC"/>
<path d="M293.199 438.313C293.199 438.313 309.257 419.822 310.506 418.822C307.757 415.074 300.384 407.015 300.384 406.578C296.885 409.577 278.328 427.256 278.266 428.068C279.953 429.817 293.199 438.313 293.199 438.313Z" fill="#DFE1F3"/>
<path d="M373.621 236.271C373.871 248.453 373.496 369.709 373.684 379.017C379.12 386.701 396.052 395.696 396.052 395.696C399.426 392.198 414.797 376.206 414.797 376.206C411.86 360.275 381.744 235.146 381.744 235.146L373.621 236.271Z" fill="#232D82"/>
<path d="M381.807 211.231C378.433 209.294 363.999 211.356 360.812 212.855C360.875 215.791 370.31 237.468 375.371 237.343C378.245 237.281 379.682 237.094 380.932 236.219C383.556 234.532 383.681 218.54 381.807 211.231Z" fill="#232D82"/>
<path d="M373.244 210.16C372.494 216.033 367.246 228.089 367.246 228.089C359.31 228.089 329.569 221.468 323.883 211.909C325.757 208.973 333.443 202.164 333.443 202.164C335.754 205.038 361.122 210.16 373.244 210.16Z" fill="#DFE1F3"/>
<path d="M374.621 210.161C375.996 211.16 382.306 218.719 382.994 227.278C385.93 226.403 388.742 224.592 389.992 221.093C387.617 214.846 378.058 205.601 378.058 205.601C378.495 208.224 376.246 209.661 374.621 210.161Z" fill="#DFE1F3"/>
<path d="M627.36 818.112H576.811C567.002 818.112 559.004 826.109 559.004 835.916V842.288H645.105V835.916C645.167 826.046 637.169 818.112 627.36 818.112Z" fill="#CED2F4"/>
<path d="M627.358 818.112H610.176C618.861 818.112 625.859 825.109 625.859 833.792V842.288H645.166V835.916C645.166 826.046 637.168 818.112 627.358 818.112Z" fill="#DFE1F3"/>
<path d="M616.302 804.491H587.872C582.311 804.491 577.875 808.989 577.875 814.487V818.11H626.361V814.487C626.299 808.989 621.8 804.491 616.302 804.491Z" fill="#CED2F4"/>
<path d="M616.302 804.491H606.617C611.491 804.491 615.427 808.427 615.427 813.3V818.11H626.299V814.487C626.299 808.989 621.8 804.491 616.302 804.491Z" fill="#DFE1F3"/>
<path d="M608.055 140.931H596.246V804.433H608.055V140.931Z" fill="#CED2F4"/>
<path d="M608.113 175.043C644.665 182.227 761.632 206.591 777.628 206.591C793.623 206.591 836.986 196.72 870.539 206.591C870.539 237.826 849.92 298.11 855.418 303.608C860.917 309.105 870.539 362.643 870.539 382.446C853.981 399.001 764.694 365.079 747.199 365.079C729.704 365.079 623.609 349.711 608.113 355.771C608.113 330.658 608.113 175.043 608.113 175.043Z" fill="url(#paint3_linear_14_2750)"/>
<path d="M861.916 322.974C859.605 313.041 857.23 305.482 855.356 303.608C854.918 303.171 854.668 302.421 854.543 301.421C846.296 291.738 716.458 231.079 718.769 228.83C721.081 226.519 841.547 266.438 836.549 261.503C831.55 256.505 620.297 180.166 608.113 175.105C608.113 175.105 608.113 177.854 608.113 182.664C632.981 193.347 680.093 227.456 702.524 249.883C723.456 270.748 834.549 314.79 861.916 322.974Z" fill="#D70F82"/>
<path opacity="0.1" d="M755.321 366.205C728.891 353.149 652.787 298.799 650.726 300.861C649.038 302.548 690.714 343.716 708.834 361.582C726.766 363.519 741.575 365.143 747.198 365.143C749.073 365.081 751.884 365.456 755.321 366.205Z" fill="#D70F82"/>
<path opacity="0.2" d="M870.473 382.442C853.728 372.384 782.998 342.96 773.501 333.465C764.004 323.969 689.775 260.749 674.529 258.187C659.283 255.626 628.604 252.378 631.916 255.626C635.228 258.937 676.091 256.188 690.274 274.93C704.458 293.671 658.284 269.37 658.284 274.93C658.284 280.49 714.143 286.049 727.326 305.353C740.448 324.594 809.553 377.319 849.167 386.815C858.977 387.377 866.662 386.253 870.473 382.442Z" fill="#D70F82"/>
<path d="M504.785 89.148C528.806 87.9458 547.304 67.5022 546.102 43.4858C544.899 19.4694 524.452 0.974772 500.431 2.17689C476.41 3.37901 457.912 23.8227 459.115 47.8391C460.317 71.8554 480.764 90.3501 504.785 89.148Z" fill="url(#paint4_radial_14_2750)"/>
<path d="M536.134 17.8105C524.887 33.928 508.642 61.5401 502.581 61.6026C493.896 61.7275 481.587 32.3038 476.839 35.5522C471.653 39.1131 492.334 72.7848 504.018 72.6599C511.954 72.535 531.323 45.4851 541.508 26.0567C540.071 23.1206 538.259 20.3718 536.134 17.8105Z" fill="#232D82"/>
<path d="M475.087 31.1804C479.773 27.9319 492.082 57.3557 500.829 57.2307C509.639 57.1058 539.193 0.132415 545.129 2.13148C553.377 4.88019 514.513 68.1006 502.329 68.288C490.52 68.4755 469.901 34.7412 475.087 31.1804Z" fill="#F6F6FC"/>
<path opacity="0.8" d="M866.853 916.454L849.358 920.015C847.983 920.265 846.859 921.264 846.421 922.576L840.735 939.506C840.298 940.818 840.61 942.317 841.485 943.317L853.357 956.685C854.294 957.747 855.669 958.185 857.043 957.935L874.538 954.374C875.913 954.124 877.038 953.125 877.475 951.813L883.161 934.883C883.598 933.571 883.286 932.072 882.411 931.072L870.602 917.704C869.602 916.642 868.228 916.142 866.853 916.454Z" fill="#BDC0DA"/>
<path opacity="0.8" d="M897.34 102.519L901.277 130.069C901.714 133.067 905.213 134.442 907.587 132.568L929.456 115.388C931.831 113.514 931.268 109.828 928.519 108.704L902.714 98.3335C899.84 97.2091 896.903 99.5829 897.34 102.519Z" fill="#BDC0DA"/>
<path opacity="0.8" d="M17.4059 399.069L0.78563 421.371C-1.02636 423.807 0.473211 427.243 3.47236 427.618L31.0895 430.867C34.0887 431.241 36.3381 428.18 35.1509 425.432L24.0915 399.881C22.9044 397.07 19.2179 396.633 17.4059 399.069Z" fill="#BDC0DA"/>
<defs>
<radialGradient id="paint0_radial_14_2750" cx="0" cy="0" r="1" gradientUnits="userSpaceOnUse" gradientTransform="translate(353.397 549.295) scale(84.845 308.567)">
<stop stop-color="#7E7EEF"/>
<stop offset="1" stop-color="#232D82"/>
</radialGradient>
<radialGradient id="paint1_radial_14_2750" cx="0" cy="0" r="1" gradientUnits="userSpaceOnUse" gradientTransform="translate(290.211 827.407) scale(59.8846 24.3967)">
<stop stop-color="#7E7EEF"/>
<stop offset="1" stop-color="#232D82"/>
</radialGradient>
<radialGradient id="paint2_radial_14_2750" cx="0" cy="0" r="1" gradientUnits="userSpaceOnUse" gradientTransform="translate(308.834 549.295) scale(99.5365 308.567)">
<stop stop-color="#7E7EEF"/>
<stop offset="1" stop-color="#232D82"/>
</radialGradient>
<linearGradient id="paint3_linear_14_2750" x1="608.113" y1="386.998" x2="815.324" y2="130.447" gradientUnits="userSpaceOnUse">
<stop stop-color="#232D82"/>
<stop offset="0.645833" stop-color="#D70F82"/>
<stop offset="1" stop-color="#F05023"/>
</linearGradient>
<radialGradient id="paint4_radial_14_2750" cx="0" cy="0" r="1" gradientUnits="userSpaceOnUse" gradientTransform="translate(478.679 30.1994) rotate(-2.86496) scale(70.8616 70.8486)">
<stop stop-color="#7E7EEF"/>
<stop offset="1" stop-color="#232D82"/>
</radialGradient>
</defs>
</svg>
